<svg width="95" height="15" viewBox="0 0 95 15" fill="none" xmlns="http://www.w3.org/2000/svg">
<g clip-path="url(#clip0_6_21)">
<rect width="15" height="15" rx="2" fill="#8E9B67"/>
<path d="M8.74432 3.36364V15H6.61932L1.55682 7.67614H1.47159V15H-0.988636V3.36364H1.17045L6.19318 10.6818H6.29545V3.36364H8.74432Z" fill="black"/>
</g>
<g clip-path="url(#clip1_6_21)">
<rect x="16" width="15" height="15" rx="2" fill="#8F66A3"/>
<path d="M18.4716 3.36364V15H16.0114V3.36364H18.4716Z" fill="black"/>
</g>
<g clip-path="url(#clip2_6_21)">
<rect x="32" width="15" height="15" rx="2" fill="#8F66A3"/>
<path d="M29.5682 5.39205V3.36364H39.125V5.39205H35.5625V15H33.1307V5.39205H29.5682Z" fill="black"/>
</g>
<g clip-path="url(#clip3_6_21)">
<rect x="48" width="15" height="15" rx="2" fill="#E0AD49"/>
<path d="M56.7045 9.18182C56.7045 10.4508 56.464 11.5303 55.983 12.4205C55.5057 13.3106 54.8542 13.9905 54.0284 14.4602C53.2064 14.9261 52.2822 15.1591 51.2557 15.1591C50.2216 15.1591 49.2936 14.9242 48.4716 14.4545C47.6496 13.9848 47 13.3049 46.5227 12.4148C46.0455 11.5246 45.8068 10.447 45.8068 9.18182C45.8068 7.91288 46.0455 6.83333 46.5227 5.94318C47 5.05303 47.6496 4.375 48.4716 3.90909C49.2936 3.43939 50.2216 3.20455 51.2557 3.20455C52.2822 3.20455 53.2064 3.43939 54.0284 3.90909C54.8542 4.375 55.5057 5.05303 55.983 5.94318C56.464 6.83333 56.7045 7.91288 56.7045 9.18182ZM54.2102 9.18182C54.2102 8.35985 54.0871 7.66667 53.8409 7.10227C53.5985 6.53788 53.2557 6.10985 52.8125 5.81818C52.3693 5.52652 51.8504 5.38068 51.2557 5.38068C50.661 5.38068 50.142 5.52652 49.6989 5.81818C49.2557 6.10985 48.911 6.53788 48.6648 7.10227C48.4223 7.66667 48.3011 8.35985 48.3011 9.18182C48.3011 10.0038 48.4223 10.697 48.6648 11.2614C48.911 11.8258 49.2557 12.2538 49.6989 12.5455C50.142 12.8371 50.661 12.983 51.2557 12.983C51.8504 12.983 52.3693 12.8371 52.8125 12.5455C53.2557 12.2538 53.5985 11.8258 53.8409 11.2614C54.0871 10.697 54.2102 10.0038 54.2102 9.18182Z" fill="black"/>
</g>
<g clip-path="url(#clip4_6_21)">
<rect x="80" width="15" height="15" rx="2" fill="#E0AD49"/>
<path d="M88.7045 9.18182C88.7045 10.4508 88.464 11.5303 87.983 12.4205C87.5057 13.3106 86.8542 13.9905 86.0284 14.4602C85.2064 14.9261 84.2822 15.1591 83.2557 15.1591C82.2216 15.1591 81.2936 14.9242 80.4716 14.4545C79.6496 13.9848 79 13.3049 78.5227 12.4148C78.0455 11.5246 77.8068 10.447 77.8068 9.18182C77.8068 7.91288 78.0455 6.83333 78.5227 5.94318C79 5.05303 79.6496 4.375 80.4716 3.90909C81.2936 3.43939 82.2216 3.20455 83.2557 3.20455C84.2822 3.20455 85.2064 3.43939 86.0284 3.90909C86.8542 4.375 87.5057 5.05303 87.983 5.94318C88.464 6.83333 88.7045 7.91288 88.7045 9.18182ZM86.2102 9.18182C86.2102 8.35985 86.0871 7.66667 85.8409 7.10227C85.5985 6.53788 85.2557 6.10985 84.8125 5.81818C84.3693 5.52652 83.8504 5.38068 83.2557 5.38068C82.661 5.38068 82.142 5.52652 81.6989 5.81818C81.2557 6.10985 80.911 6.53788 80.6648 7.10227C80.4223 7.66667 80.3011 8.35985 80.3011 9.18182C80.3011 10.0038 80.4223 10.697 80.6648 11.2614C80.911 11.8258 81.2557 12.2538 81.6989 12.5455C82.142 12.8371 82.661 12.983 83.2557 12.983C83.8504 12.983 84.3693 12.8371 84.8125 12.5455C85.2557 12.2538 85.5985 11.8258 85.8409 11.2614C86.0871 10.697 86.2102 10.0038 86.2102 9.18182Z" fill="black"/>
</g>
<g clip-path="url(#clip5_6_21)">
<rect x="64" width="15" height="15" rx="2" fill="#8E9B67"/>
<path d="M72.7443 3.36364V15H70.6193L65.5568 7.67614H65.4716V15H63.0114V3.36364H65.1705L70.1932 10.6818H70.2955V3.36364H72.7443Z" fill="black"/>
</g>
<defs>
<clipPath id="clip0_6_21">
<rect width="15" height="15" rx="2" fill="white"/>
</clipPath>
<clipPath id="clip1_6_21">
<rect x="16" width="15" height="15" rx="2" fill="white"/>
</clipPath>
<clipPath id="clip2_6_21">
<rect x="32" width="15" height="15" rx="2" fill="white"/>
</clipPath>
<clipPath id="clip3_6_21">
<rect x="48" width="15" height="15" rx="2" fill="white"/>
</clipPath>
<clipPath id="clip4_6_21">
<rect x="80" width="15" height="15" rx="2" fill="white"/>
</clipPath>
<clipPath id="clip5_6_21">
<rect x="64" width="15" height="15" rx="2" fill="white"/>
</clipPath>
</defs>
</svg>
