<svg width="410" height="71" viewBox="0 0 410 71" fill="none" xmlns="http://www.w3.org/2000/svg">
<path d="M0.316515 68.904L0.316515 2.088H4.06052L50.7165 47.496V2.088H54.2685V68.904H0.316515ZM119.091 2.184V5.73599H99.123V65.448H119.091V69H75.795V65.448H95.667V5.73599H75.795V2.184H119.091ZM195.434 2.184V5.73599L170.186 5.73599V69H166.73V5.73599H141.482V2.184L195.434 2.184ZM239.52 0.743997C244.512 0.743997 249.12 1.992 253.344 4.48799C257.568 6.92 260.896 10.248 263.328 14.472C265.824 18.696 267.072 23.304 267.072 28.296V42.888C267.072 47.88 265.824 52.488 263.328 56.712C260.896 60.936 257.568 64.296 253.344 66.792C249.12 69.224 244.512 70.44 239.52 70.44C234.528 70.44 229.92 69.224 225.696 66.792C221.472 64.296 218.112 60.936 215.616 56.712C213.184 52.488 211.968 47.88 211.968 42.888V28.296C211.968 23.304 213.184 18.696 215.616 14.472C218.112 10.248 221.472 6.92 225.696 4.48799C229.92 1.992 234.528 0.743997 239.52 0.743997ZM215.52 42.888C215.52 47.24 216.576 51.272 218.688 54.984C220.864 58.632 223.776 61.544 227.424 63.72C231.136 65.832 235.168 66.888 239.52 66.888C243.872 66.888 247.872 65.832 251.52 63.72C255.232 61.544 258.144 58.632 260.256 54.984C262.432 51.272 263.52 47.24 263.52 42.888V28.296C263.52 23.944 262.432 19.944 260.256 16.296C258.144 12.584 255.232 9.67199 251.52 7.55999C247.872 5.384 243.872 4.296 239.52 4.296C235.168 4.296 231.136 5.384 227.424 7.55999C223.776 9.67199 220.864 12.584 218.688 16.296C216.576 19.944 215.52 23.944 215.52 28.296V42.888ZM284.47 69V2.184H288.214L334.87 47.496V2.184H338.422V69H334.87V52.488L288.022 6.792V69H284.47ZM381.645 0.743997C386.637 0.743997 391.245 1.992 395.469 4.48799C399.693 6.92 403.021 10.248 405.453 14.472C407.949 18.696 409.197 23.304 409.197 28.296V42.888C409.197 47.88 407.949 52.488 405.453 56.712C403.021 60.936 399.693 64.296 395.469 66.792C391.245 69.224 386.637 70.44 381.645 70.44C376.653 70.44 372.045 69.224 367.821 66.792C363.597 64.296 360.237 60.936 357.741 56.712C355.309 52.488 354.093 47.88 354.093 42.888V28.296C354.093 23.304 355.309 18.696 357.741 14.472C360.237 10.248 363.597 6.92 367.821 4.48799C372.045 1.992 376.653 0.743997 381.645 0.743997ZM357.645 42.888C357.645 47.24 358.701 51.272 360.813 54.984C362.989 58.632 365.901 61.544 369.549 63.72C373.261 65.832 377.293 66.888 381.645 66.888C385.997 66.888 389.997 65.832 393.645 63.72C397.357 61.544 400.269 58.632 402.381 54.984C404.557 51.272 405.645 47.24 405.645 42.888V28.296C405.645 23.944 404.557 19.944 402.381 16.296C400.269 12.584 397.357 9.67199 393.645 7.55999C389.997 5.384 385.997 4.296 381.645 4.296C377.293 4.296 373.261 5.384 369.549 7.55999C365.901 9.67199 362.989 12.584 360.813 16.296C358.701 19.944 357.645 23.944 357.645 28.296V42.888Z" fill="white"/>
</svg>
