<svg width="114" height="115" viewBox="0 0 114 115" fill="none" xmlns="http://www.w3.org/2000/svg">
<g filter="url(#filter0_df_20_3)">
<path d="M41.7995 46.1154C40.5832 44.8689 41.4307 42.7713 43.1715 42.7195L52.824 42.4327C53.3442 42.4173 53.838 42.1996 54.2003 41.826L60.9538 34.8623C62.2031 33.574 64.3857 34.4558 64.3895 36.2504L64.4101 45.951C64.4112 46.4715 64.6152 46.971 64.9787 47.3435L71.7228 54.255C72.9392 55.5015 72.0917 57.5992 70.3508 57.6509L60.6983 57.9377C60.1781 57.9532 59.6844 58.1708 59.322 58.5445L52.5686 65.5082C51.3192 66.7964 49.1367 65.9146 49.1329 64.12L49.1122 54.4194C49.1111 53.899 48.9071 53.3994 48.5437 53.0269L41.7995 46.1154Z" fill="#492598"/>
</g>
<defs>
<filter id="filter0_df_20_3" x="0.327354" y="0.35067" width="112.868" height="113.669" filterUnits="userSpaceOnUse" color-interpolation-filters="sRGB">
<feFlood flood-opacity="0" result="BackgroundImageFix"/>
<feColorMatrix in="SourceAlpha" type="matrix" values="0 0 0 0 0 0 0 0 0 0 0 0 0 0 0 0 0 0 127 0" result="hardAlpha"/>
<feOffset dy="7"/>
<feGaussianBlur stdDeviation="20.45"/>
<feComposite in2="hardAlpha" operator="out"/>
<feColorMatrix type="matrix" values="0 0 0 0 0.679167 0 0 0 0 0.679167 0 0 0 0 0.679167 0 0 0 0.25 0"/>
<feBlend mode="normal" in2="BackgroundImageFix" result="effect1_dropShadow_20_3"/>
<feBlend mode="normal" in="SourceGraphic" in2="effect1_dropShadow_20_3" result="shape"/>
<feGaussianBlur stdDeviation="2" result="effect2_foregroundBlur_20_3"/>
</filter>
</defs>
</svg>
